# xmcd
#
# Track frame offsets:
#	150
#	14228
#	25632
#	38741
#	51623
#	62773
#	77737
#	90277
#	100538
#	111876
#	123348
#	134814
#	146059
#	155939
#	166709
#	176595
#	188154
#	198862
#	212204
#	221731
#
# Disc length: 3089 seconds
# Revision: 0
# Processed by: cddbd v1.5.2PL0 Copyright (c) Steve Scherf et al.
# Submitted via: dBpowerAMP V12.0
#
DISCID=230c0f14
DTITLE=Etta James - The Complete Modern and Kent Recordings (Ace, 2cd, 2005)
DYEAR=2005
DGENRE=R&B
TTITLE0=The Wallflower (Etta James and the Peaches)
TTITLE1=Hold Me, Squeeze Me (Etta James and the Peaches)
TTITLE2=Hey Henry
TTITLE3=Be Mine
TTITLE4=Good Rockin' Daddy
TTITLE5=Crazy Feeling
TTITLE6=W-o-m-a-n
TTITLE7=That's All
TTITLE8=My One And Only
TTITLE9=I'm A Fool
TTITLE10=Shortnin' Bread Rock
TTITLE11=Tears Of Joy
TTITLE12=Tough Lover
TTITLE13=Fools We Mortals Be
TTITLE14=Good Lookin'
TTITLE15=Then I'll Care
TTITLE16=The Pick-Up
TTITLE17=Market Place
TTITLE18=Come What May
TTITLE19=By The Light Of The Silvery Moon
EXTD=
EXTT0=
EXTT1=
EXTT2=
EXTT3=
EXTT4=
EXTT5=
EXTT6=
EXTT7=
EXTT8=
EXTT9=
EXTT10=
EXTT11=
EXTT12=
EXTT13=
EXTT14=
EXTT15=
EXTT16=
EXTT17=
EXTT18=
EXTT19=
PLAYORDER=
